<?xml version="1.0" standalone="no"?>
<!DOCTYPE svg PUBLIC "-//W3C//DTD SVG 20010904//EN"
 "http://www.w3.org/TR/2001/REC-SVG-20010904/DTD/svg10.dtd">
<svg version="1.0" xmlns="http://www.w3.org/2000/svg"
 width="726.000000pt" height="344.000000pt" viewBox="0 0 726.000000 344.000000"
 preserveAspectRatio="xMidYMid meet">

<g transform="translate(0.000000,344.000000) scale(0.100000,-0.100000)"
fill="#000000" stroke="none">
<path d="M4007 2820 l-38 -5 105 -103 c78 -77 109 -102 120 -95 22 12 186 192
186 204 0 10 -291 10 -373 -1z"/>
<path d="M3240 2811 c0 -5 19 -26 43 -46 23 -21 87 -81 142 -134 90 -86 274
-260 405 -381 26 -25 92 -85 146 -135 55 -49 132 -120 172 -158 62 -59 76 -68
98 -63 23 6 154 106 464 356 52 42 107 85 121 95 15 11 69 54 120 96 81 64
319 253 428 337 29 23 31 27 15 32 -11 3 -118 7 -239 9 l-220 2 -76 -63 c-42
-35 -167 -135 -279 -223 -317 -251 -354 -281 -374 -304 -11 -11 -25 -21 -31
-21 -15 0 -25 89 -25 227 l0 104 -137 140 -136 139 -319 0 c-177 0 -318 -4
-318 -9z"/>
<path d="M2383 2800 l-151 -5 -119 -115 c-65 -64 -138 -133 -162 -155 -75 -69
-74 -67 -59 -76 7 -5 168 -6 358 -4 877 13 1219 13 1229 1 11 -13 11 -13 -155
-193 -242 -263 -434 -476 -434 -484 0 -13 99 -19 305 -19 l212 0 63 68 c145
154 223 232 231 232 8 0 12 -16 11 -40 0 -3 -3 -221 -7 -485 l-7 -480 91 -137
c51 -76 97 -141 103 -144 14 -9 44 26 141 161 l72 100 5 187 c3 102 9 190 13
195 8 7 83 -67 227 -224 30 -33 105 -113 166 -179 110 -119 192 -208 271 -297
l42 -47 208 0 c114 0 214 4 222 9 11 7 4 19 -30 52 -24 24 -67 69 -94 99 -90
100 -518 563 -601 650 -44 47 -121 130 -171 185 -150 165 -511 512 -838 805
-88 79 -198 181 -245 226 -143 139 -93 125 -442 122 -167 -2 -371 -5 -455 -8z"/>
<path d="M2807 1682 c-15 -15 -27 -33 -27 -38 0 -10 254 -24 432 -24 64 0 70
2 108 36 22 20 40 40 40 45 0 5 -117 9 -263 9 l-263 0 -27 -28z"/>
<path d="M2675 1540 c-27 -28 -36 -43 -29 -50 7 -7 96 -10 262 -8 l252 3 47
48 48 47 -271 0 -270 0 -39 -40z"/>
<path d="M2561 1413 c-24 -24 -103 -111 -260 -288 -19 -22 -87 -97 -151 -166
-202 -220 -261 -289 -256 -297 5 -9 1585 -4 1808 6 l146 7 -44 70 c-24 39 -47
76 -50 83 -4 7 -26 43 -51 80 l-44 67 -467 5 c-338 4 -467 8 -467 16 0 7 75
92 166 190 221 238 219 236 219 245 0 5 -117 9 -260 9 l-260 0 -29 -27z"/>
<path d="M4184 993 c-18 -12 -244 -306 -244 -318 0 -3 38 -5 84 -5 l83 0 39
43 c90 101 219 259 219 270 0 14 -163 22 -181 10z"/>
</g>
</svg>
